<?xml version="1.0" ?><svg height="24px" version="1.1" viewBox="0 0 24 24" width="24px" xmlns="http://www.w3.org/2000/svg" xmlns:sketch="http://www.bohemiancoding.com/sketch/ns" xmlns:xlink="http://www.w3.org/1999/xlink"><title/><desc/><defs/><g fill="none" fill-rule="evenodd" id="miu" stroke="none" stroke-width="1"><g id="Artboard-1" transform="translate(-395.000000, -443.000000)"><g id="slice" transform="translate(215.000000, 119.000000)"/><path d="M404.505737,447.924739 L404.505737,444.999051 C404.505737,444.443353 404.953366,444 405.505545,444 L408.50593,444 C409.062021,444 409.505737,444.44729 409.505737,444.999051 L409.505737,447.928795 C409.757369,448.017965 410.002826,448.120187 410.241296,448.234645 L412.313766,446.162174 C412.706704,445.769237 413.336723,445.77226 413.727173,446.16271 L415.848765,448.284302 C416.241981,448.677518 416.239454,449.307555 415.8493,449.697708 L413.772783,451.774226 C413.885971,452.011449 413.987063,452.255552 414.075261,452.505737 L417.012424,452.505737 C417.568121,452.505737 418.011475,452.953366 418.011475,453.505545 L418.011475,456.50593 C418.011475,457.062021 417.564184,457.505737 417.012424,457.505737 L414.071205,457.505737 C413.983001,457.754641 413.882028,457.997504 413.769073,458.233539 L415.8493,460.313766 C416.242238,460.706704 416.239214,461.336723 415.848765,461.727172 L413.727173,463.848765 C413.333957,464.241981 412.70392,464.239454 412.313766,463.8493 L410.233539,461.769073 C409.997504,461.882028 409.754641,461.983001 409.505737,462.071205 L409.505737,465.012424 C409.505737,465.568121 409.058108,466.011475 408.50593,466.011475 L405.505545,466.011475 C404.949454,466.011475 404.505737,465.564184 404.505737,465.012424 L404.505737,462.075261 C404.255552,461.987063 404.011449,461.885971 403.774226,461.772783 L401.697708,463.8493 C401.304771,464.242238 400.674751,464.239214 400.284302,463.848765 L398.16271,461.727172 C397.769494,461.333957 397.772021,460.70392 398.162174,460.313766 L400.234645,458.241296 C400.120187,458.002826 400.017965,457.757369 399.928795,457.505737 L396.999051,457.505737 C396.443353,457.505737 396,457.058108 396,456.50593 L396,453.505545 C396,452.949454 396.44729,452.505737 396.999051,452.505737 L399.924739,452.505737 C400.013899,452.252822 400.116237,452.006121 400.230927,451.766461 L398.162174,449.697708 C397.769237,449.304771 397.77226,448.674751 398.16271,448.284302 L400.284302,446.16271 C400.677518,445.769494 401.307555,445.772021 401.697708,446.162174 L403.766461,448.230927 C404.006121,448.116237 404.252822,448.013899 404.505737,447.924739 L404.505737,447.924739 Z M412,455 C412,452.238576 409.761424,450 407,450 C404.238576,450 402,452.238576 402,455 C402,457.761424 404.238576,460 407,460 C409.761424,460 412,457.761424 412,455 Z" fill="#000000" id="editor-setting-gear-glyph"/></g></g></svg>